            <svg viewBox="0 0 3530 1100" xmlns="http://www.w3.org/2000/svg" class="svg-diagram">
                <g data-nodename="Verksamhetsnära bastjänster (Affärssystem)" data-label="ApplicationArea" transform="translate(0, 64)"><rect width="3527.2000000000003" height="1032" data-label="ApplicationArea" data-nodename="Verksamhetsnära bastjänster (Affärssystem)" fill="#5d6b89" rx="10" ry="10"></rect><rect width="3527.2000000000003" height="44" fill="#5d6b89" rx="10" ry="10"></rect><rect width="3527.2000000000003" height="1032" rx="10" ry="10" fill="none" stroke-width="8" stroke="#5d6b89"></rect><text x="10" y="31.6" font-size="24" font-family="Arial, sans-serif" font-weight="normal" fill="#fff"><tspan x="10" y="31.6" dy="0em">Verksamhetsnära bastjänster (Affärssystem)</tspan></text><g data-nodename="Ekonomi" data-label="ApplicationGroup" transform="translate(20, 64)"><rect width="1275.2" height="948" data-label="ApplicationGroup" data-nodename="Ekonomi" fill="#fff" rx="10" ry="10"></rect><rect width="1275.2" height="44" fill="#fff" rx="10" ry="10"></rect><rect width="1275.2" height="948" rx="10" ry="10" fill="none" stroke-width="8" stroke="#fff"></rect><text x="10" y="31.6" font-size="24" font-family="Arial, sans-serif" font-weight="normal" fill="#5d6b89"><tspan x="10" y="31.6" dy="0em">Ekonomi</tspan></text><g data-nodename="Fakturahantering" data-label="Application" transform="translate(20, 64)"><rect width="398.40000000000003" height="96" data-label="Application" data-nodename="Fakturahantering" fill="#5d6b89" rx="10" ry="10"></rect><rect width="398.40000000000003" height="96" rx="10" ry="10" fill="none" stroke-width="8" stroke="#5d6b89"></rect><text x="10" y="31.6" font-size="24" font-family="Arial, sans-serif" font-weight="normal" fill="#fff"><tspan x="10" y="31.6" dy="0em">Fakturahantering</tspan></text></g><g data-nodename="Finansiell styrning" data-label="Application" transform="translate(438.40000000000003, 64)"><rect width="398.40000000000003" height="96" data-label="Application" data-nodename="Finansiell styrning" fill="#5d6b89" rx="10" ry="10"></rect><rect width="398.40000000000003" height="96" rx="10" ry="10" fill="none" stroke-width="8" stroke="#5d6b89"></rect><text x="10" y="31.6" font-size="24" font-family="Arial, sans-serif" font-weight="normal" fill="#fff"><tspan x="10" y="31.6" dy="0em">Finansiell styrning</tspan></text></g><g data-nodename="Inköp" data-label="Application" transform="translate(856.8000000000001, 64)"><rect width="398.40000000000003" height="96" data-label="Application" data-nodename="Inköp" fill="#5d6b89" rx="10" ry="10"></rect><rect width="398.40000000000003" height="96" rx="10" ry="10" fill="none" stroke-width="8" stroke="#5d6b89"></rect><text x="10" y="31.6" font-size="24" font-family="Arial, sans-serif" font-weight="normal" fill="#fff"><tspan x="10" y="31.6" dy="0em">Inköp</tspan></text></g><g data-nodename="Upphandling" data-label="Application" transform="translate(20, 180)"><rect width="398.40000000000003" height="96" data-label="Application" data-nodename="Upphandling" fill="#5d6b89" rx="10" ry="10"></rect><rect width="398.40000000000003" height="96" rx="10" ry="10" fill="none" stroke-width="8" stroke="#5d6b89"></rect><text x="10" y="31.6" font-size="24" font-family="Arial, sans-serif" font-weight="normal" fill="#fff"><tspan x="10" y="31.6" dy="0em">Upphandling</tspan></text></g><g data-nodename="Ekonomisk redovisning" data-label="Application" transform="translate(438.40000000000003, 180)"><rect width="398.40000000000003" height="96" data-label="Application" data-nodename="Ekonomisk redovisning" fill="#5d6b89" rx="10" ry="10"></rect><rect width="398.40000000000003" height="96" rx="10" ry="10" fill="none" stroke-width="8" stroke="#5d6b89"></rect><text x="10" y="31.6" font-size="24" font-family="Arial, sans-serif" font-weight="normal" fill="#fff"><tspan x="10" y="31.6" dy="0em">Ekonomisk redovisning</tspan></text></g><g data-nodename="Ekonomisk uppföljning" data-label="Application" transform="translate(856.8000000000001, 180)"><rect width="398.40000000000003" height="96" data-label="Application" data-nodename="Ekonomisk uppföljning" fill="#5d6b89" rx="10" ry="10"></rect><rect width="398.40000000000003" height="96" rx="10" ry="10" fill="none" stroke-width="8" stroke="#5d6b89"></rect><text x="10" y="31.6" font-size="24" font-family="Arial, sans-serif" font-weight="normal" fill="#fff"><tspan x="10" y="31.6" dy="0em">Ekonomisk uppföljning</tspan></text></g><g data-nodename="Kapitalförvaltning" data-label="Application" transform="translate(20, 296)"><rect width="398.40000000000003" height="132" data-label="Application" data-nodename="Kapitalförvaltning" fill="#5d6b89" rx="10" ry="10"></rect><rect width="398.40000000000003" height="132" rx="10" ry="10" fill="none" stroke-width="8" stroke="#5d6b89"></rect><text x="10" y="31.6" font-size="24" font-family="Arial, sans-serif" font-weight="normal" fill="#fff"><tspan x="10" y="31.6" dy="0em">Kapitalförvaltning</tspan></text></g><g data-nodename="E-handel" data-label="Application" transform="translate(438.40000000000003, 296)"><rect width="438.40000000000003" height="132" data-label="Application" data-nodename="E-handel" fill="#5d6b89" rx="10" ry="10"></rect><rect width="438.40000000000003" height="44" fill="#5d6b89" rx="10" ry="10"></rect><rect width="438.40000000000003" height="132" rx="10" ry="10" fill="none" stroke-width="8" stroke="#5d6b89"></rect><text x="10" y="31.6" font-size="24" font-family="Arial, sans-serif" font-weight="normal" fill="#fff"><tspan x="10" y="31.6" dy="0em">E-handel</tspan></text><g data-nodename="Wisum" data-label="Software" transform="translate(20, 64)"><rect width="398.40000000000003" height="48" data-label="Software" data-nodename="Wisum" fill="#0172ad" rx="10" ry="10"></rect><rect width="398.40000000000003" height="48" rx="10" ry="10" fill="none" stroke-width="8" stroke="#0172ad"></rect><text x="10" y="31.6" font-size="24" font-family="Arial, sans-serif" font-weight="normal" fill="#fff"><tspan x="10" y="31.6" dy="0em">Wisum</tspan></text></g></g><g data-nodename="Betalning" data-label="Application" transform="translate(896.8000000000001, 296)"><rect width="398.40000000000003" height="132" data-label="Application" data-nodename="Betalning" fill="#5d6b89" rx="10" ry="10"></rect><rect width="398.40000000000003" height="132" rx="10" ry="10" fill="none" stroke-width="8" stroke="#5d6b89"></rect><text x="10" y="31.6" font-size="24" font-family="Arial, sans-serif" font-weight="normal" fill="#fff"><tspan x="10" y="31.6" dy="0em">Betalning</tspan></text></g><g data-nodename="Kassahantering" data-label="Application" transform="translate(20, 448)"><rect width="398.40000000000003" height="96" data-label="Application" data-nodename="Kassahantering" fill="#5d6b89" rx="10" ry="10"></rect><rect width="398.40000000000003" height="96" rx="10" ry="10" fill="none" stroke-width="8" stroke="#5d6b89"></rect><text x="10" y="31.6" font-size="24" font-family="Arial, sans-serif" font-weight="normal" fill="#fff"><tspan x="10" y="31.6" dy="0em">Kassahantering</tspan></text></g></g><g data-nodename="HR" data-label="ApplicationGroup" transform="translate(1315.2, 64)"><rect width="1275.2" height="948" data-label="ApplicationGroup" data-nodename="HR" fill="#fff" rx="10" ry="10"></rect><rect width="1275.2" height="44" fill="#fff" rx="10" ry="10"></rect><rect width="1275.2" height="948" rx="10" ry="10" fill="none" stroke-width="8" stroke="#fff"></rect><text x="10" y="31.6" font-size="24" font-family="Arial, sans-serif" font-weight="normal" fill="#5d6b89"><tspan x="10" y="31.6" dy="0em">HR</tspan></text><g data-nodename="Lönehantering" data-label="Application" transform="translate(20, 64)"><rect width="398.40000000000003" height="96" data-label="Application" data-nodename="Lönehantering" fill="#5d6b89" rx="10" ry="10"></rect><rect width="398.40000000000003" height="96" rx="10" ry="10" fill="none" stroke-width="8" stroke="#5d6b89"></rect><text x="10" y="31.6" font-size="24" font-family="Arial, sans-serif" font-weight="normal" fill="#fff"><tspan x="10" y="31.6" dy="0em">Lönehantering</tspan></text></g><g data-nodename="Timredovisning" data-label="Application" transform="translate(438.40000000000003, 64)"><rect width="398.40000000000003" height="96" data-label="Application" data-nodename="Timredovisning" fill="#5d6b89" rx="10" ry="10"></rect><rect width="398.40000000000003" height="96" rx="10" ry="10" fill="none" stroke-width="8" stroke="#5d6b89"></rect><text x="10" y="31.6" font-size="24" font-family="Arial, sans-serif" font-weight="normal" fill="#fff"><tspan x="10" y="31.6" dy="0em">Timredovisning</tspan></text></g><g data-nodename="Anställning" data-label="Application" transform="translate(856.8000000000001, 64)"><rect width="398.40000000000003" height="96" data-label="Application" data-nodename="Anställning" fill="#5d6b89" rx="10" ry="10"></rect><rect width="398.40000000000003" height="96" rx="10" ry="10" fill="none" stroke-width="8" stroke="#5d6b89"></rect><text x="10" y="31.6" font-size="24" font-family="Arial, sans-serif" font-weight="normal" fill="#fff"><tspan x="10" y="31.6" dy="0em">Anställning</tspan></text></g><g data-nodename="Rekrytering anställda" data-label="Application" transform="translate(20, 180)"><rect width="398.40000000000003" height="132" data-label="Application" data-nodename="Rekrytering anställda" fill="#5d6b89" rx="10" ry="10"></rect><rect width="398.40000000000003" height="132" rx="10" ry="10" fill="none" stroke-width="8" stroke="#5d6b89"></rect><text x="10" y="31.6" font-size="24" font-family="Arial, sans-serif" font-weight="normal" fill="#fff"><tspan x="10" y="31.6" dy="0em">Rekrytering anställda</tspan></text></g><g data-nodename="Bemanningsplanering" data-label="Application" transform="translate(438.40000000000003, 180)"><rect width="438.40000000000003" height="132" data-label="Application" data-nodename="Bemanningsplanering" fill="#5d6b89" rx="10" ry="10"></rect><rect width="438.40000000000003" height="44" fill="#5d6b89" rx="10" ry="10"></rect><rect width="438.40000000000003" height="132" rx="10" ry="10" fill="none" stroke-width="8" stroke="#5d6b89"></rect><text x="10" y="31.6" font-size="24" font-family="Arial, sans-serif" font-weight="normal" fill="#fff"><tspan x="10" y="31.6" dy="0em">Bemanningsplanering</tspan></text><g data-nodename="Retendo" data-label="Software" transform="translate(20, 64)"><rect width="398.40000000000003" height="48" data-label="Software" data-nodename="Retendo" fill="#0172ad" rx="10" ry="10"></rect><rect width="398.40000000000003" height="48" rx="10" ry="10" fill="none" stroke-width="8" stroke="#0172ad"></rect><text x="10" y="31.6" font-size="24" font-family="Arial, sans-serif" font-weight="normal" fill="#fff"><tspan x="10" y="31.6" dy="0em">Retendo</tspan></text></g></g><g data-nodename="Reseräkning- och utläggshantering" data-label="Application" transform="translate(896.8000000000001, 180)"><rect width="398.40000000000003" height="132" data-label="Application" data-nodename="Reseräkning- och utläggshantering" fill="#5d6b89" rx="10" ry="10"></rect><rect width="398.40000000000003" height="132" rx="10" ry="10" fill="none" stroke-width="8" stroke="#5d6b89"></rect><text x="10" y="31.6" font-size="24" font-family="Arial, sans-serif" font-weight="normal" fill="#fff"><tspan x="10" y="31.6" dy="0em">Reseräkning- och utläggshantering</tspan></text></g><g data-nodename="Ledighets- och frånvarohantering" data-label="Application" transform="translate(20, 332)"><rect width="398.40000000000003" height="96" data-label="Application" data-nodename="Ledighets- och frånvarohantering" fill="#5d6b89" rx="10" ry="10"></rect><rect width="398.40000000000003" height="96" rx="10" ry="10" fill="none" stroke-width="8" stroke="#5d6b89"></rect><text x="10" y="31.6" font-size="24" font-family="Arial, sans-serif" font-weight="normal" fill="#fff"><tspan x="10" y="31.6" dy="0em">Ledighets- och frånvarohantering</tspan></text></g><g data-nodename="Uppdragshantering" data-label="Application" transform="translate(438.40000000000003, 332)"><rect width="398.40000000000003" height="96" data-label="Application" data-nodename="Uppdragshantering" fill="#5d6b89" rx="10" ry="10"></rect><rect width="398.40000000000003" height="96" rx="10" ry="10" fill="none" stroke-width="8" stroke="#5d6b89"></rect><text x="10" y="31.6" font-size="24" font-family="Arial, sans-serif" font-weight="normal" fill="#fff"><tspan x="10" y="31.6" dy="0em">Uppdragshantering</tspan></text></g><g data-nodename="Kompetensutveckling" data-label="Application" transform="translate(856.8000000000001, 332)"><rect width="398.40000000000003" height="96" data-label="Application" data-nodename="Kompetensutveckling" fill="#5d6b89" rx="10" ry="10"></rect><rect width="398.40000000000003" height="96" rx="10" ry="10" fill="none" stroke-width="8" stroke="#5d6b89"></rect><text x="10" y="31.6" font-size="24" font-family="Arial, sans-serif" font-weight="normal" fill="#fff"><tspan x="10" y="31.6" dy="0em">Kompetensutveckling</tspan></text></g><g data-nodename="Uppföljning HR" data-label="Application" transform="translate(20, 448)"><rect width="398.40000000000003" height="96" data-label="Application" data-nodename="Uppföljning HR" fill="#5d6b89" rx="10" ry="10"></rect><rect width="398.40000000000003" height="96" rx="10" ry="10" fill="none" stroke-width="8" stroke="#5d6b89"></rect><text x="10" y="31.6" font-size="24" font-family="Arial, sans-serif" font-weight="normal" fill="#fff"><tspan x="10" y="31.6" dy="0em">Uppföljning HR</tspan></text></g><g data-nodename="Pensionshantering" data-label="Application" transform="translate(438.40000000000003, 448)"><rect width="398.40000000000003" height="96" data-label="Application" data-nodename="Pensionshantering" fill="#5d6b89" rx="10" ry="10"></rect><rect width="398.40000000000003" height="96" rx="10" ry="10" fill="none" stroke-width="8" stroke="#5d6b89"></rect><text x="10" y="31.6" font-size="24" font-family="Arial, sans-serif" font-weight="normal" fill="#fff"><tspan x="10" y="31.6" dy="0em">Pensionshantering</tspan></text></g><g data-nodename="Företagshälsovård" data-label="Application" transform="translate(856.8000000000001, 448)"><rect width="398.40000000000003" height="96" data-label="Application" data-nodename="Företagshälsovård" fill="#5d6b89" rx="10" ry="10"></rect><rect width="398.40000000000003" height="96" rx="10" ry="10" fill="none" stroke-width="8" stroke="#5d6b89"></rect><text x="10" y="31.6" font-size="24" font-family="Arial, sans-serif" font-weight="normal" fill="#fff"><tspan x="10" y="31.6" dy="0em">Företagshälsovård</tspan></text></g><g data-nodename="Jämställdhet och likabehandling" data-label="Application" transform="translate(20, 564)"><rect width="398.40000000000003" height="132" data-label="Application" data-nodename="Jämställdhet och likabehandling" fill="#5d6b89" rx="10" ry="10"></rect><rect width="398.40000000000003" height="132" rx="10" ry="10" fill="none" stroke-width="8" stroke="#5d6b89"></rect><text x="10" y="31.6" font-size="24" font-family="Arial, sans-serif" font-weight="normal" fill="#fff"><tspan x="10" y="31.6" dy="0em">Jämställdhet och likabehandling</tspan></text></g><g data-nodename="Arbetsmiljö" data-label="Application" transform="translate(438.40000000000003, 564)"><rect width="438.40000000000003" height="132" data-label="Application" data-nodename="Arbetsmiljö" fill="#5d6b89" rx="10" ry="10"></rect><rect width="438.40000000000003" height="44" fill="#5d6b89" rx="10" ry="10"></rect><rect width="438.40000000000003" height="132" rx="10" ry="10" fill="none" stroke-width="8" stroke="#5d6b89"></rect><text x="10" y="31.6" font-size="24" font-family="Arial, sans-serif" font-weight="normal" fill="#fff"><tspan x="10" y="31.6" dy="0em">Arbetsmiljö</tspan></text><g data-nodename="IA" data-label="Software" transform="translate(20, 64)"><rect width="398.40000000000003" height="48" data-label="Software" data-nodename="IA" fill="#0172ad" rx="10" ry="10"></rect><rect width="398.40000000000003" height="48" rx="10" ry="10" fill="none" stroke-width="8" stroke="#0172ad"></rect><text x="10" y="31.6" font-size="24" font-family="Arial, sans-serif" font-weight="normal" fill="#fff"><tspan x="10" y="31.6" dy="0em">IA</tspan></text></g></g><g data-nodename="Organisation" data-label="Application" transform="translate(896.8000000000001, 564)"><rect width="398.40000000000003" height="132" data-label="Application" data-nodename="Organisation" fill="#5d6b89" rx="10" ry="10"></rect><rect width="398.40000000000003" height="132" rx="10" ry="10" fill="none" stroke-width="8" stroke="#5d6b89"></rect><text x="10" y="31.6" font-size="24" font-family="Arial, sans-serif" font-weight="normal" fill="#fff"><tspan x="10" y="31.6" dy="0em">Organisation</tspan></text></g><g data-nodename="Medarbetarundersökningar" data-label="Application" transform="translate(20, 716)"><rect width="398.40000000000003" height="96" data-label="Application" data-nodename="Medarbetarundersökningar" fill="#5d6b89" rx="10" ry="10"></rect><rect width="398.40000000000003" height="96" rx="10" ry="10" fill="none" stroke-width="8" stroke="#5d6b89"></rect><text x="10" y="31.6" font-size="24" font-family="Arial, sans-serif" font-weight="normal" fill="#fff"><tspan x="10" y="31.6" dy="0em">Medarbetarundersökningar</tspan></text></g><g data-nodename="Personalkatalog" data-label="Application" transform="translate(438.40000000000003, 716)"><rect width="398.40000000000003" height="96" data-label="Application" data-nodename="Personalkatalog" fill="#5d6b89" rx="10" ry="10"></rect><rect width="398.40000000000003" height="96" rx="10" ry="10" fill="none" stroke-width="8" stroke="#5d6b89"></rect><text x="10" y="31.6" font-size="24" font-family="Arial, sans-serif" font-weight="normal" fill="#fff"><tspan x="10" y="31.6" dy="0em">Personalkatalog</tspan></text></g><g data-nodename="Personalförmåner" data-label="Application" transform="translate(856.8000000000001, 716)"><rect width="398.40000000000003" height="96" data-label="Application" data-nodename="Personalförmåner" fill="#5d6b89" rx="10" ry="10"></rect><rect width="398.40000000000003" height="96" rx="10" ry="10" fill="none" stroke-width="8" stroke="#5d6b89"></rect><text x="10" y="31.6" font-size="24" font-family="Arial, sans-serif" font-weight="normal" fill="#fff"><tspan x="10" y="31.6" dy="0em">Personalförmåner</tspan></text></g><g data-nodename="Rehabilitering" data-label="Application" transform="translate(20, 832)"><rect width="398.40000000000003" height="96" data-label="Application" data-nodename="Rehabilitering" fill="#5d6b89" rx="10" ry="10"></rect><rect width="398.40000000000003" height="96" rx="10" ry="10" fill="none" stroke-width="8" stroke="#5d6b89"></rect><text x="10" y="31.6" font-size="24" font-family="Arial, sans-serif" font-weight="normal" fill="#fff"><tspan x="10" y="31.6" dy="0em">Rehabilitering</tspan></text></g><g data-nodename="Resursplanering (ERP)" data-label="Application" transform="translate(438.40000000000003, 832)"><rect width="398.40000000000003" height="96" data-label="Application" data-nodename="Resursplanering (ERP)" fill="#5d6b89" rx="10" ry="10"></rect><rect width="398.40000000000003" height="96" rx="10" ry="10" fill="none" stroke-width="8" stroke="#5d6b89"></rect><text x="10" y="31.6" font-size="24" font-family="Arial, sans-serif" font-weight="normal" fill="#fff"><tspan x="10" y="31.6" dy="0em">Resursplanering (ERP)</tspan></text></g></g><g data-nodename="Ledningssystem" data-label="ApplicationGroup" transform="translate(2610.4, 64)"><rect width="896.8000000000001" height="948" data-label="ApplicationGroup" data-nodename="Ledningssystem" fill="#fff" rx="10" ry="10"></rect><rect width="896.8000000000001" height="44" fill="#fff" rx="10" ry="10"></rect><rect width="896.8000000000001" height="948" rx="10" ry="10" fill="none" stroke-width="8" stroke="#fff"></rect><text x="10" y="31.6" font-size="24" font-family="Arial, sans-serif" font-weight="normal" fill="#5d6b89"><tspan x="10" y="31.6" dy="0em">Ledningssystem</tspan></text><g data-nodename="Arkitektur" data-label="Application" transform="translate(20, 64)"><rect width="438.40000000000003" height="132" data-label="Application" data-nodename="Arkitektur" fill="#5d6b89" rx="10" ry="10"></rect><rect width="438.40000000000003" height="44" fill="#5d6b89" rx="10" ry="10"></rect><rect width="438.40000000000003" height="132" rx="10" ry="10" fill="none" stroke-width="8" stroke="#5d6b89"></rect><text x="10" y="31.6" font-size="24" font-family="Arial, sans-serif" font-weight="normal" fill="#fff"><tspan x="10" y="31.6" dy="0em">Arkitektur</tspan></text><g data-nodename="2c8" data-label="Software" transform="translate(20, 64)"><rect width="398.40000000000003" height="48" data-label="Software" data-nodename="2c8" fill="#0172ad" rx="10" ry="10"></rect><rect width="398.40000000000003" height="48" rx="10" ry="10" fill="none" stroke-width="8" stroke="#0172ad"></rect><text x="10" y="31.6" font-size="24" font-family="Arial, sans-serif" font-weight="normal" fill="#fff"><tspan x="10" y="31.6" dy="0em">2c8</tspan></text></g></g><g data-nodename="Planering och uppföljning" data-label="Application" transform="translate(478.40000000000003, 64)"><rect width="398.40000000000003" height="132" data-label="Application" data-nodename="Planering och uppföljning" fill="#5d6b89" rx="10" ry="10"></rect><rect width="398.40000000000003" height="132" rx="10" ry="10" fill="none" stroke-width="8" stroke="#5d6b89"></rect><text x="10" y="31.6" font-size="24" font-family="Arial, sans-serif" font-weight="normal" fill="#fff"><tspan x="10" y="31.6" dy="0em">Planering och uppföljning</tspan></text></g></g></g>
            </svg>