<svg  viewBox="-400 -400 800 800" xmlns="http://www.w3.org/2000/svg" class="svg-diagram">
    <g class="arcs-layer"><path fill="#5d6b89" stroke="#fff" d="M0,-111.5A111.5,111.5,0,1,1,0,111.5A111.5,111.5,0,1,1,0,-111.5M0,-0.5A0.5,0.5,0,1,0,0,0.5A0.5,0.5,0,1,0,0,-0.5Z" style="cursor: pointer;"></path><path fill="#fff" stroke="#5d6b89" d="M0,-224A224,224,0,1,1,-97.19,201.817L-48.812,101.359A112.5,112.5,0,1,0,0,-112.5Z" style="cursor: pointer;"></path><path fill="#fff" stroke="#5d6b89" d="M-97.19,201.817A224,224,0,0,1,-160.354,-156.405L-80.535,-78.552A112.5,112.5,0,0,0,-48.812,101.359Z" style="cursor: pointer;"></path><path fill="#fff" stroke="#5d6b89" d="M-160.354,-156.405A224,224,0,0,1,0,-224L0,-112.5A112.5,112.5,0,0,0,-80.535,-78.552Z"></path><path fill="#5d6b89" stroke="#fff" d="M0,-336.5A336.5,336.5,0,0,1,66.676,-329.828L44.583,-220.539A225,225,0,0,0,0,-225Z"></path><path fill="#5d6b89" stroke="#fff" d="M66.676,-329.828A336.5,336.5,0,0,1,130.708,-310.077L87.398,-207.332A225,225,0,0,0,44.583,-220.539Z"></path><path fill="#5d6b89" stroke="#fff" d="M130.708,-310.077A336.5,336.5,0,0,1,189.557,-278.029L126.747,-185.904A225,225,0,0,0,87.398,-207.332Z"></path><path fill="#5d6b89" stroke="#fff" d="M189.557,-278.029A336.5,336.5,0,0,1,240.889,-234.957L161.07,-157.103A225,225,0,0,0,126.747,-185.904Z"></path><path fill="#5d6b89" stroke="#fff" d="M240.889,-234.957A336.5,336.5,0,0,1,282.669,-182.567L189.006,-122.073A225,225,0,0,0,161.07,-157.103Z"></path><path fill="#5d6b89" stroke="#fff" d="M282.669,-182.567A336.5,336.5,0,0,1,313.239,-122.937L209.447,-82.202A225,225,0,0,0,189.006,-122.073Z"></path><path fill="#5d6b89" stroke="#fff" d="M313.239,-122.937A336.5,336.5,0,0,1,331.388,-58.433L221.582,-39.071A225,225,0,0,0,209.447,-82.202Z"></path><path fill="#5d6b89" stroke="#fff" d="M331.388,-58.433A336.5,336.5,0,0,1,336.395,8.389L224.93,5.609A225,225,0,0,0,221.582,-39.071Z"></path><path fill="#5d6b89" stroke="#fff" d="M336.395,8.389A336.5,336.5,0,0,1,328.063,74.878L219.359,50.067A225,225,0,0,0,224.93,5.609Z"></path><path fill="#5d6b89" stroke="#fff" d="M328.063,74.878A336.5,336.5,0,0,1,306.722,138.398L205.089,92.54A225,225,0,0,0,219.359,50.067Z"></path><path fill="#5d6b89" stroke="#fff" d="M306.722,138.398A336.5,336.5,0,0,1,273.217,196.43L182.686,131.342A225,225,0,0,0,205.089,92.54Z"></path><path fill="#5d6b89" stroke="#fff" d="M273.217,196.43A336.5,336.5,0,0,1,228.878,246.672L153.039,164.937A225,225,0,0,0,182.686,131.342Z"></path><path fill="#5d6b89" stroke="#fff" d="M228.878,246.672A336.5,336.5,0,0,1,175.463,287.132L117.323,191.99A225,225,0,0,0,153.039,164.937Z"></path><path fill="#5d6b89" stroke="#fff" d="M175.463,287.132A336.5,336.5,0,0,1,115.09,316.207L76.955,211.431A225,225,0,0,0,117.323,191.99Z"></path><path fill="#5d6b89" stroke="#fff" d="M115.09,316.207A336.5,336.5,0,0,1,50.153,332.742L33.535,222.487A225,225,0,0,0,76.955,211.431Z"></path><path fill="#5d6b89" stroke="#fff" d="M50.153,332.742A336.5,336.5,0,0,1,-16.773,336.082L-11.215,224.72A225,225,0,0,0,33.535,222.487Z"></path><path fill="#5d6b89" stroke="#fff" d="M-16.773,336.082A336.5,336.5,0,0,1,-83.034,326.095L-55.52,218.042A225,225,0,0,0,-11.215,224.72Z"></path><path fill="#5d6b89" stroke="#fff" d="M-83.034,326.095A336.5,336.5,0,0,1,-146.002,303.176L-97.624,202.718A225,225,0,0,0,-55.52,218.042Z"></path><path fill="#5d6b89" stroke="#fff" d="M-146.002,303.176A336.5,336.5,0,0,1,-203.18,268.235L-135.856,179.355A225,225,0,0,0,-97.624,202.718Z"></path><path fill="#5d6b89" stroke="#fff" d="M-203.18,268.235A336.5,336.5,0,0,1,-252.301,222.657L-168.701,148.879A225,225,0,0,0,-135.856,179.355Z" style="cursor: default;"></path><path fill="#5d6b89" stroke="#fff" d="M-252.301,222.657A336.5,336.5,0,0,1,-291.418,168.25L-194.856,112.5A225,225,0,0,0,-168.701,148.879Z" style="cursor: default;"></path><path fill="#5d6b89" stroke="#fff" d="M-291.418,168.25A336.5,336.5,0,0,1,-318.978,107.171L-213.284,71.659A225,225,0,0,0,-194.856,112.5Z" style="cursor: default;"></path><path fill="#5d6b89" stroke="#fff" d="M-318.978,107.171A336.5,336.5,0,0,1,-333.888,41.842L-223.254,27.977A225,225,0,0,0,-213.284,71.659Z" style="cursor: default;"></path><path fill="#5d6b89" stroke="#fff" d="M-333.888,41.842A336.5,336.5,0,0,1,-335.559,-25.147L-224.371,-16.814A225,225,0,0,0,-223.254,27.977Z"></path><path fill="#5d6b89" stroke="#fff" d="M-335.559,-25.147A336.5,336.5,0,0,1,-323.923,-91.138L-216.59,-60.939A225,225,0,0,0,-224.371,-16.814Z"></path><path fill="#5d6b89" stroke="#fff" d="M-323.923,-91.138A336.5,336.5,0,0,1,-299.442,-153.515L-200.221,-102.647A225,225,0,0,0,-216.59,-60.939Z"></path><path fill="#5d6b89" stroke="#fff" d="M-299.442,-153.515A336.5,336.5,0,0,1,-282.669,-182.567L-189.006,-122.073A225,225,0,0,0,-200.221,-102.647Z"></path><path fill="#5d6b89" stroke="#fff" d="M-282.669,-182.567A336.5,336.5,0,0,1,-263.086,-209.804L-175.912,-140.285A225,225,0,0,0,-189.006,-122.073Z"></path><path fill="#5d6b89" stroke="#fff" d="M-263.086,-209.804A336.5,336.5,0,0,1,-240.889,-234.957L-161.07,-157.103A225,225,0,0,0,-175.912,-140.285Z"></path><path fill="#5d6b89" stroke="#fff" d="M-240.889,-234.957A336.5,336.5,0,0,1,-189.557,-278.029L-126.747,-185.904A225,225,0,0,0,-161.07,-157.103Z"></path><path fill="#5d6b89" stroke="#fff" d="M-189.557,-278.029A336.5,336.5,0,0,1,-130.708,-310.077L-87.398,-207.332A225,225,0,0,0,-126.747,-185.904Z"></path><path fill="#5d6b89" stroke="#fff" d="M-130.708,-310.077A336.5,336.5,0,0,1,-66.676,-329.828L-44.583,-220.539A225,225,0,0,0,-87.398,-207.332Z"></path><path fill="#5d6b89" stroke="#fff" d="M-66.676,-329.828A336.5,336.5,0,0,1,0,-336.5L0,-225A225,225,0,0,0,-44.583,-220.539Z"></path><path fill="#0172ad" stroke="#fff" d="M-399.552,-204.839A449,449,0,0,1,-377.172,-243.603L-283.509,-183.109A337.5,337.5,0,0,0,-300.332,-153.971Z"></path><path fill="#0172ad" stroke="#fff" d="M-377.172,-243.603A449,449,0,0,1,-351.042,-279.947L-263.868,-210.428A337.5,337.5,0,0,0,-283.509,-183.109Z"></path><path fill="#0172ad" stroke="#fff" d="M-351.042,-279.947A449,449,0,0,1,-321.424,-313.508L-241.605,-235.655A337.5,337.5,0,0,0,-263.868,-210.428Z"></path></g>
</svg>